# xmcd CD database file
#
# Track frame offsets:
#	150
#	28942
#	42857
#	62780
#
# Disc length: 1219 seconds
#
# Revision: 0
# Processed by: cddbd v1.5.1PL0 Copyright (c) Steve Scherf et al.
# Submitted via: CDex 1.51
#
DISCID=3104c104
DTITLE=AMADORI - 光 〜大切にするべきはその手〜
DYEAR=2005
DGENRE=Pop
TTITLE0=光 〜大切にするべきはその手〜
TTITLE1=I don't care Feat.Q
TTITLE2=遠い世界に
TTITLE3=光 〜大切にするべきはその手〜 (instrumental)
EXTD=YEAR: 2005/04/20
EXTT0=
EXTT1=
EXTT2=
EXTT3=
PLAYORDER=
